<svg xmlns="http://www.w3.org/2000/svg" xmlns:xlink="http://www.w3.org/1999/xlink" width="1080" zoomAndPan="magnify" viewBox="0 0 810 809.999993" height="1080" preserveAspectRatio="xMidYMid meet" version="1.0"><path fill="#5e7bd6" d="M 675 202.5 L 540 202.5 L 540 135 C 540 97.875 509.625 67.5 472.5 67.5 L 337.5 67.5 C 300.375 67.5 270 97.875 270 135 L 270 202.5 L 135 202.5 C 97.875 202.5 67.5 232.875 67.5 270 L 67.5 675 C 67.5 712.125 97.875 742.5 135 742.5 L 675 742.5 C 712.125 742.5 742.5 712.125 742.5 675 L 742.5 270 C 742.5 232.875 712.125 202.5 675 202.5 Z M 337.5 135 L 472.5 135 L 472.5 202.5 L 337.5 202.5 Z M 540 506.25 L 438.75 506.25 L 438.75 607.5 L 371.25 607.5 L 371.25 506.25 L 270 506.25 L 270 438.75 L 371.25 438.75 L 371.25 337.5 L 438.75 337.5 L 438.75 438.75 L 540 438.75 Z M 540 506.25 " fill-opacity="1" fill-rule="nonzero"/></svg>